# xmcd
# Track frame offsets:
# 150
# 16517
# 29097
# 43560
# 59155
# 70407
# 78514
# 94855
# 106482
# 120040
# 135762
# 151352
#
# Disc length: 2178 seconds
# Revision: 0
# Processed by: cddbd v1.5.2PL0 Copyright (c) Steve Scherf et al.
# Submitted via: VisiTrax 2.11.2.271 - For more info visit www.synapsa.com
#
DISCID=9308800c
DTITLE=Slim Dusty - Another Aussie Sing Song
DYEAR=1963
DGENRE=Australian Country
TTITLE0=Murrumbidgee Rose/Wodonga/Where's That Old Cobber Of Mine/I'm Lonesom
TTITLE0=e For Sydney Tonight
TTITLE1=Murray Moon/Beautiful Queensland/Our Wedding Waltz
TTITLE2=The Old Bullock Dray/The Snake Gully Swagger/Game As Ned Kelly/Woolloo
TTITLE2=mooloo
TTITLE3=My Home On The Sunburnt Plains/The Dying Stockman/I'm Gonna Hump My Bl
TTITLE3=uey
TTITLE4=Bold Tommy Payne
TTITLE5=Swingin' Along The Road That Leads To Henty/Snowy River/On The Road T
TTITLE5=o Anywhere
TTITLE6=When A Boy From Alabama Meets A Girl From Gundagai/A Little Boy Calle
TTITLE6=d Smiley/A Town Like Alice
TTITLE7=Sequel To A Pub With No Beer
TTITLE8=Where The Blue Gums Turn Red In The Sunset/Bushwacker/Give My Love T
TTITLE8=o Sydney Town
TTITLE9=Never Never
TTITLE10=By The Eumerella Shore/The Wild Colonial Boy
TTITLE11=I've Got A Possie Way Back In Aussie/Out Of The Blue Gums/A-N-Z-A-C
EXTD=EMI
EXTT0=
EXTT1=
EXTT2=
EXTT3=
EXTT4=
EXTT5=
EXTT6=
EXTT7=
EXTT8=
EXTT9=
EXTT10=
EXTT11=
PLAYORDER=
